<?xml version="1.0" encoding="UTF-8"?>
<svg id="Camada_2" data-name="Camada 2" xmlns="http://www.w3.org/2000/svg" viewBox="0 0 1512 212.23">
  <defs>
    <style>
      .cls-1 {
        fill: #fff;
      }
    </style>
  </defs>
  <g id="Camada_1-2" data-name="Camada 1">
    <path class="cls-1" d="M1121.51,2.29c-56.94,.13-102.85,47.01-102.86,105.05-.01,58,46.01,104.88,102.95,104.88,57.08,0,103.13-46.74,103.15-104.73,.02-58.3-46.13-105.34-103.24-105.21Zm54.22,159.45c-4.16,11.85-10.37,22.62-19.17,31.69-21.1,21.77-54.63,19.81-73.59-3.86-12.88-16.08-19.14-34.69-22.1-54.61-1.36-9.16-1.85-18.45-2.36-23.85,.54-25.92,2.91-47.71,13.04-67.62,4.44-8.73,10.24-17.26,17.16-24.15,20.34-20.23,53.05-17.18,71.26,5.54,12.4,15.48,18.97,33.28,22.15,52.52,4.73,28.61,3.26,56.82-6.4,84.34Zm-504.31-53.12c31.61-15.8,38.28-57.56,12.99-82.19-14.31-13.94-32.62-19.24-51.83-20.36-21.59-1.26-43.27-.82-64.91-1.1-.94-.01-1.88,.19-4.5,.47,9.76,10.59,8.62,22.52,8.53,34.29-.38,46.79-.78,93.57-.93,140.36-.03,10.43-.62,20.44-8.77,29.06h52.64c-2.05-1.65-2.74-2.42-3.61-2.86-8.71-4.49-11.78-11.47-11.39-21.23,.84-21.21,.82-42.46,1.17-63.69,.02-1.25,.27-2.5,.48-4.29,6.51,.45,12.83,.05,18.73,1.44,33.76,7.96,42.38,24.23,40.73,49.55-.51,7.77-1.02,15.57-.88,23.35,.18,9.24,4.2,14.8,11.81,17.12,8.62,2.62,17.28,1.67,25.66,.13-1.68-6.82-3.74-13.14-4.68-19.61-.95-6.53-.8-13.21-1.1-19.83-.27-6.13-.28-12.28-.78-18.38-.97-11.81-6.34-20.91-17.63-25.59-5.02-2.08-10.38-3.41-15.66-4.8-4.35-1.15-8.82-1.88-14.34-3.03,5.86-1.3,10.49-2.01,14.9-3.4,4.58-1.44,9.09-3.24,13.38-5.38Zm-51.09,4.78c-6.29,.23-12.59,.04-19.19,.04V8.29c9.5,.69,18.88,.55,27.91,2.22,14.18,2.61,22.41,12.42,26.38,25.72,4.79,16.06,5.21,32.43,1.02,48.66-4.7,18.19-17.23,27.85-36.12,28.53ZM999.75,4.82c.21,.79-.2,2.45-.69,2.61-4.04,1.25-3.36,4.62-3.38,7.43-.16,26.72-.24,53.44-.28,80.16-.05,36.19-.04,72.37-.06,108.56,0,1.96,0,3.92,0,5.66-4.94,1.87-7.44,.12-9.82-3.69-37.61-60.09-75.35-120.1-113.06-180.12-1.04-1.66-2.17-3.27-3.94-5.93-.19,2.52-.39,3.89-.39,5.27-.05,53.95-.16,107.89-.02,161.84,.02,6.27-.58,13.09,5.49,17.85,.86,.68,.36,3.08,.52,5.1h-21.46c.31-1.85-.04-4.33,1.01-5.31,6.3-5.83,6.71-13.48,6.97-21.11,.27-7.79,.07-15.6,.07-23.4,0-42.99,.03-85.98-.05-128.97,0-4.46-.08-9.06-1.21-13.31-.86-3.25-3.47-6.03-5.23-9.07-.72-1.24-1.24-2.59-2.15-4.53,15.12,0,29.25-.13,43.38,.19,1.47,.03,3.23,2.45,4.27,4.13,25.98,42.1,51.88,84.24,77.79,126.38,3.08,5.01,6.18,10.02,10.04,16.26,.15-2.75,.27-3.99,.27-5.24-.02-41.66-.03-83.33-.11-124.99,0-2.79-.16-5.72-1.04-8.32-.58-1.74-2.59-2.99-3.91-4.5-.95-1.08-1.84-2.21-2.75-3.32,.31-.42,.63-.84,.94-1.26,5.61,0,11.22-.06,16.82,.07,.71,.02,1.82,.9,2,1.57ZM328.2,110.95c.21,30.7,.61,61.4,.93,92.1,0,.95-.22,1.91-.44,3.66-5.89-1.55-11.58-2.65-16.98-4.56-6.27-2.22-12.04-2.01-18.37,.17-16.76,5.78-33.95,9.36-51.91,7.89-32.51-2.67-57.81-17.71-72.84-46.3-19.86-37.76-20.73-77.33-.6-115.02C184.48,17.97,212.26,1.34,247.93,.04c16.27-.59,31.41,5.05,46.1,11.53,5.78,2.55,11.44,5.36,17.05,8.26,1.29,.67,3,2.18,3.02,3.34,.24,9.85,.14,19.7,.14,29.56-.32,0-.64,.01-.96,.02-4.17-6.68-8.03-13.59-12.59-19.99-9.05-12.7-20.18-23.21-35.58-27.62-22.98-6.57-41.12,2.34-55.95,19.3-14.35,16.41-21.2,36.28-24.21,57.43-3.7,25.97-1.86,51.6,6.9,76.52,3.82,10.87,8.98,21.05,16.56,29.86,16.42,19.1,37.77,24.44,60.65,13.95,9.71-4.45,18.42-11.11,27.44-17,1.24-.81,2.26-2.94,2.28-4.48,.33-22.73,.48-45.47,.66-68.2,0-.47-.18-.95-.32-1.65-17.27-2.68-29.03,7.61-41.52,17.06,1.44-6.93,2.88-13.86,4.39-21.1,1.33-.13,2.61-.37,3.89-.36,19.16,.06,38.32,.21,57.48,.2,3.16,0,4.81,.5,4.83,4.27ZM757.13,11.99V102.09c10.3,0,20.43,.25,30.54-.1,5.56-.19,10.03-3.26,13.57-7.54,1.14-1.37,2.27-2.75,4.35-5.27,4.66,12.75,7.88,24.63,10.56,36.67-.56,.25-1.12,.49-1.68,.74-.93-1.37-2.18-2.62-2.75-4.13-3.05-8.03-8.97-12.44-17.38-12.69-12.29-.37-24.6-.1-37.26-.1v93.57c27.51,.9,55.35,3.83,77.94-17.18,.22-.21,.61-.24,1.5-.56-1.74,8.43-3.41,16.54-5.14,24.9h-116.71c1.16-2.43,1.52-4.75,2.87-5.76,5.56-4.16,7.04-9.99,7.05-16.27,.09-54.59,.14-109.19-.09-163.78-.03-6.23-.11-13.33-8.23-15.95-.61-.2-.64-2.16-1.25-4.48,8.31,0,15.78,.09,23.24-.02,29.32-.44,58.63-.87,87.95-1.49,3.48-.07,4.95,.86,5.74,4.32,1.7,7.54,3.92,14.96,6.3,23.8-2.7-2.07-4.32-3.18-5.79-4.46-10.6-9.22-23.13-13.75-36.99-14.24-12.64-.44-25.3-.09-38.35-.09Zm-365.03,.03V102.12c9.91,0,19.55,.24,29.16-.1,5.4-.19,9.71-3.18,13.11-7.35,1.21-1.49,2.45-2.96,3.67-4.44,.54,.02,1.07,.05,1.61,.07,3.21,11.82,6.42,23.64,9.62,35.47-.68,.27-1.35,.54-2.03,.81-.94-1.54-2.13-2.98-2.79-4.63-3-7.57-8.54-11.96-16.62-12.2-11.79-.35-23.61-.09-35.77-.09v93.65c26.82,.54,54.21,4.25,75.58-18.38,.26,.32,.51,.64,.77,.96-1.61,8.11-3.21,16.22-4.86,24.54h-112.36c1-2.32,1.27-4.65,2.57-5.66,5.44-4.23,6.92-9.94,6.95-16.3,.08-21.74,.15-43.48,.15-65.22,0-32.69-.02-65.39-.2-98.08-.02-3.58-.69-7.31-1.9-10.67-.75-2.07-3.11-3.55-4.72-5.33-.95-1.04-1.84-2.13-2.76-3.2l.88-1.87c7.8,0,15.6,.1,23.4-.02,27.49-.41,54.98-.81,82.46-1.46,4-.09,5.5,1.17,6.3,4.92,1.55,7.26,3.61,14.41,5.83,23.05-2.37-1.82-3.78-2.75-5.01-3.87-10.12-9.23-22.15-14.12-35.73-14.63-12.3-.46-24.62-.1-37.31-.1Zm971.69,15c-20.71,59.28-41.11,118.67-61.7,177.99-.72,2.07-2.51,3.76-3.8,5.63-1.19-1.81-2.81-3.47-3.5-5.45-20.81-59.42-41.51-118.88-62.29-178.31-2.79-7.98-5.47-16.15-13.88-20.43-.38-.19-.36-1.15-.88-3.01,6.68,0,12.63,.04,18.59,0,10.33-.08,20.66-.27,30.99-.24,1.15,0,2.3,1.11,3.46,1.7-.85,.7-1.85,1.29-2.5,2.14-.71,.93-1.61,2.15-1.53,3.17,.47,5.75,.26,11.78,2,17.17,13.68,42.41,27.76,84.7,41.71,127.02,.25,.75,.56,1.49,1.16,3.1,.89-1.96,1.55-3.16,2-4.43,14.97-41.98,29.95-83.96,44.82-125.97,1.7-4.81,4.27-9.59-.1-14.85-1.37-1.65-.21-5.37-.21-8.45h21.93c-3.05,3.47-5.89,6.15-8.05,9.29-3.05,4.45-6.48,8.94-8.22,13.93ZM155.93,202.69c-5.24-4.73-9.71-9.78-12.05-16.71-15.59-46.13-31.37-92.2-47.09-138.29-5.02-14.71-10.04-29.42-15.4-45.13-.86,2.12-1.26,3.03-1.59,3.96-20.98,58.82-42.02,117.61-62.84,176.49-2.97,8.39-7.36,15.49-14.03,21.33-1.14,.99-1.75,2.58-2.92,4.39H21.2c-2.57-18.81,1.79-36.14,9.1-53.08H100.47c3.22,9.05,6.35,18.11,9.67,27.11,2.1,5.68,3.57,11.24,1.72,17.41-.8,2.69-.14,5.81-.14,8.84h48.95c-2-2.72-3.1-4.82-4.75-6.32ZM31.3,151.43c11.85-33.92,23.63-67.66,35.83-102.59,10.96,34.85,21.51,68.42,32.25,102.59H31.3Zm1480.7,57.57c-1.86-2.67-2.81-4.85-4.44-6.23-5.69-4.82-10.03-10.32-12.48-17.55-17.34-51.3-34.87-102.53-52.35-153.79-3.12-9.15-6.28-18.28-9.79-28.52-1.05,2.42-1.68,3.69-2.16,5.02-20.98,58.8-42.01,117.59-62.87,176.43-2.86,8.08-7.42,14.72-13.89,20.23-1.09,.93-1.81,2.28-3.28,4.19h21.1c.11-1.71,.39-3.18,.28-4.62-1.08-15.53,2.4-30.23,7.76-44.65,1.08-2.91,2.35-4.1,5.62-4.07,20.82,.15,41.64,.12,62.46-.03,3.03-.02,4.42,.96,5.36,3.78,3.16,9.42,6.72,18.71,9.83,28.14,2.3,6.98,3.78,14.13,.61,21.66h48.23Zm-129.3-57.4c11.87-33.98,23.58-67.49,35.29-101,.36-.07,.71-.15,1.07-.22,10.55,33.54,21.11,67.08,31.86,101.23h-68.22Z"/>
  </g>
</svg>